<svg width="188" height="164" viewBox="0 0 188 164" fill="none" xmlns="http://www.w3.org/2000/svg">
<rect width="188" height="164" rx="6" fill="url(#paint0_linear_1_10)"/>
<path d="M18.875 120.625H21.65C21.7167 121.242 21.9583 121.8 22.375 122.3C22.8083 122.783 23.375 123.167 24.075 123.45C24.7917 123.717 25.6083 123.85 26.525 123.85C27.3417 123.85 28.0167 123.75 28.55 123.55C29.0833 123.35 29.475 123.075 29.725 122.725C29.9917 122.358 30.125 121.933 30.125 121.45C30.125 120.967 29.9667 120.592 29.65 120.325C29.35 120.042 28.8833 119.808 28.25 119.625C27.6167 119.425 26.8083 119.233 25.825 119.05C25.0083 118.9 24.2167 118.7 23.45 118.45C22.6833 118.2 21.9917 117.883 21.375 117.5C20.775 117.117 20.3 116.65 19.95 116.1C19.6 115.533 19.425 114.867 19.425 114.1C19.425 113.233 19.6667 112.45 20.15 111.75C20.65 111.05 21.3833 110.5 22.35 110.1C23.3167 109.7 24.4917 109.5 25.875 109.5C27.9917 109.5 29.6083 109.992 30.725 110.975C31.8417 111.942 32.3833 113.258 32.35 114.925H29.625C29.575 113.875 29.1917 113.117 28.475 112.65C27.7583 112.183 26.85 111.95 25.75 111.95C24.7667 111.95 23.9417 112.125 23.275 112.475C22.6083 112.825 22.275 113.392 22.275 114.175C22.275 114.508 22.35 114.8 22.5 115.05C22.6667 115.283 22.9333 115.5 23.3 115.7C23.6667 115.883 24.1667 116.067 24.8 116.25C25.45 116.417 26.2417 116.6 27.175 116.8C27.975 116.933 28.725 117.117 29.425 117.35C30.125 117.583 30.7333 117.875 31.25 118.225C31.7833 118.575 32.2 119.025 32.5 119.575C32.8 120.125 32.95 120.8 32.95 121.6C32.95 122.517 32.7167 123.333 32.25 124.05C31.7833 124.75 31.0667 125.308 30.1 125.725C29.15 126.125 27.9167 126.325 26.4 126.325C25.25 126.325 24.2417 126.192 23.375 125.925C22.525 125.642 21.8 125.283 21.2 124.85C20.6 124.4 20.1167 123.917 19.75 123.4C19.4 122.883 19.15 122.383 19 121.9C18.8667 121.4 18.825 120.975 18.875 120.625ZM41.0424 126.275C39.909 126.275 38.8674 126 37.9174 125.45C36.984 124.9 36.234 124.142 35.6674 123.175C35.1174 122.192 34.8424 121.067 34.8424 119.8C34.8424 118.5 35.1257 117.367 35.6924 116.4C36.259 115.417 37.0257 114.65 37.9924 114.1C38.959 113.55 40.0424 113.275 41.2424 113.275C42.5757 113.275 43.634 113.567 44.4174 114.15C45.2007 114.733 45.7591 115.517 46.0924 116.5C46.4257 117.483 46.5924 118.583 46.5924 119.8C46.5924 120.483 46.4924 121.208 46.2924 121.975C46.0924 122.725 45.7757 123.425 45.3424 124.075C44.9257 124.725 44.359 125.258 43.6424 125.675C42.9424 126.075 42.0757 126.275 41.0424 126.275ZM41.8924 123.975C42.8257 123.975 43.6174 123.8 44.2674 123.45C44.934 123.083 45.434 122.583 45.7674 121.95C46.1174 121.317 46.2924 120.6 46.2924 119.8C46.2924 118.917 46.1174 118.167 45.7674 117.55C45.4174 116.917 44.9174 116.433 44.2674 116.1C43.6174 115.75 42.8257 115.575 41.8924 115.575C40.559 115.575 39.5257 115.967 38.7924 116.75C38.059 117.533 37.6924 118.55 37.6924 119.8C37.6924 120.617 37.8674 121.342 38.2174 121.975C38.584 122.608 39.084 123.1 39.7174 123.45C40.3507 123.8 41.0757 123.975 41.8924 123.975ZM46.2924 113.55H49.0924V126H46.4924C46.4924 126 46.4757 125.842 46.4424 125.525C46.409 125.208 46.3757 124.825 46.3424 124.375C46.309 123.908 46.2924 123.467 46.2924 123.05V113.55ZM60.1428 126.275C59.1261 126.275 58.2594 126.075 57.5428 125.675C56.8428 125.275 56.2761 124.75 55.8428 124.1C55.4261 123.433 55.1178 122.725 54.9178 121.975C54.7178 121.208 54.6178 120.483 54.6178 119.8C54.6178 118.883 54.7094 118.033 54.8928 117.25C55.0928 116.467 55.4011 115.783 55.8178 115.2C56.2511 114.6 56.8178 114.133 57.5178 113.8C58.2344 113.45 59.1094 113.275 60.1428 113.275C61.3094 113.275 62.3594 113.558 63.2928 114.125C64.2261 114.675 64.9678 115.442 65.5178 116.425C66.0678 117.392 66.3428 118.517 66.3428 119.8C66.3428 121.083 66.0594 122.217 65.4928 123.2C64.9428 124.167 64.2011 124.925 63.2678 125.475C62.3344 126.008 61.2928 126.275 60.1428 126.275ZM59.3178 123.975C60.1511 123.975 60.8844 123.8 61.5178 123.45C62.1511 123.1 62.6428 122.608 62.9928 121.975C63.3428 121.342 63.5178 120.617 63.5178 119.8C63.5178 118.55 63.1511 117.533 62.4178 116.75C61.6844 115.95 60.6511 115.55 59.3178 115.55C58.4844 115.55 57.7344 115.725 57.0678 116.075C56.4011 116.425 55.8761 116.917 55.4928 117.55C55.1094 118.167 54.9178 118.917 54.9178 119.8C54.9178 120.6 55.0928 121.317 55.4428 121.95C55.7928 122.583 56.2928 123.083 56.9428 123.45C57.5928 123.8 58.3844 123.975 59.3178 123.975ZM52.1428 113.55H54.7928L54.9178 116.6V131H52.1428V113.55ZM72.0676 108.275V110.95H68.7426V108.275H72.0676ZM68.9926 113.55H71.7926V126H68.9926V113.55ZM75.3664 108.55H78.1414V126H75.3664V108.55ZM87.8414 113.55L80.8664 119.95L80.9414 118.2L88.3664 126H84.8164L78.2164 119.025L83.9914 113.55H87.8414ZM107.606 120.325C107.439 121.575 106.998 122.65 106.281 123.55C105.564 124.433 104.606 125.117 103.406 125.6C102.223 126.067 100.839 126.3 99.2561 126.3C97.8894 126.3 96.6311 126.117 95.4811 125.75C94.3477 125.383 93.3561 124.85 92.5061 124.15C91.6727 123.433 91.0227 122.558 90.5561 121.525C90.1061 120.475 89.8811 119.275 89.8811 117.925C89.8811 116.558 90.1061 115.358 90.5561 114.325C91.0227 113.292 91.6727 112.417 92.5061 111.7C93.3561 110.967 94.3477 110.417 95.4811 110.05C96.6311 109.683 97.8894 109.5 99.2561 109.5C100.856 109.5 102.248 109.742 103.431 110.225C104.631 110.708 105.589 111.4 106.306 112.3C107.023 113.2 107.456 114.283 107.606 115.55H104.856C104.623 114.8 104.256 114.167 103.756 113.65C103.256 113.117 102.623 112.708 101.856 112.425C101.106 112.142 100.239 112 99.2561 112C98.0227 112 96.9144 112.233 95.9311 112.7C94.9477 113.15 94.1727 113.817 93.6061 114.7C93.0561 115.567 92.7811 116.642 92.7811 117.925C92.7811 119.192 93.0561 120.267 93.6061 121.15C94.1727 122.017 94.9477 122.675 95.9311 123.125C96.9144 123.575 98.0227 123.8 99.2561 123.8C100.239 123.8 101.106 123.667 101.856 123.4C102.606 123.117 103.231 122.717 103.731 122.2C104.231 121.667 104.598 121.042 104.831 120.325H107.606ZM117.093 126.275C115.71 126.275 114.468 126.025 113.368 125.525C112.268 125.025 111.401 124.292 110.768 123.325C110.135 122.358 109.818 121.183 109.818 119.8C109.818 118.433 110.135 117.267 110.768 116.3C111.401 115.317 112.268 114.567 113.368 114.05C114.468 113.533 115.71 113.275 117.093 113.275C118.476 113.275 119.71 113.533 120.793 114.05C121.876 114.567 122.726 115.317 123.343 116.3C123.976 117.267 124.293 118.433 124.293 119.8C124.293 121.183 123.976 122.358 123.343 123.325C122.726 124.292 121.876 125.025 120.793 125.525C119.71 126.025 118.476 126.275 117.093 126.275ZM117.093 124C117.893 124 118.626 123.842 119.293 123.525C119.96 123.208 120.485 122.733 120.868 122.1C121.268 121.467 121.468 120.7 121.468 119.8C121.468 118.9 121.268 118.133 120.868 117.5C120.485 116.867 119.96 116.383 119.293 116.05C118.643 115.7 117.91 115.525 117.093 115.525C116.276 115.525 115.535 115.692 114.868 116.025C114.201 116.358 113.66 116.842 113.243 117.475C112.843 118.108 112.643 118.883 112.643 119.8C112.643 120.7 112.843 121.467 113.243 122.1C113.643 122.733 114.176 123.208 114.843 123.525C115.526 123.842 116.276 124 117.093 124ZM132.327 126.275C131.177 126.275 130.127 126 129.177 125.45C128.243 124.9 127.502 124.142 126.952 123.175C126.402 122.192 126.127 121.067 126.127 119.8C126.127 118.5 126.393 117.367 126.927 116.4C127.477 115.417 128.21 114.65 129.127 114.1C130.06 113.55 131.127 113.275 132.327 113.275C133.377 113.275 134.26 113.45 134.977 113.8C135.693 114.133 136.26 114.6 136.677 115.2C137.093 115.783 137.393 116.467 137.577 117.25C137.777 118.033 137.877 118.883 137.877 119.8C137.877 120.483 137.777 121.208 137.577 121.975C137.377 122.725 137.06 123.425 136.627 124.075C136.21 124.725 135.643 125.258 134.927 125.675C134.227 126.075 133.36 126.275 132.327 126.275ZM133.177 123.975C134.11 123.975 134.902 123.8 135.552 123.45C136.218 123.083 136.718 122.583 137.052 121.95C137.402 121.317 137.577 120.6 137.577 119.8C137.577 118.917 137.402 118.167 137.052 117.55C136.702 116.917 136.202 116.425 135.552 116.075C134.902 115.725 134.11 115.55 133.177 115.55C131.843 115.55 130.81 115.95 130.077 116.75C129.343 117.533 128.977 118.55 128.977 119.8C128.977 120.617 129.152 121.342 129.502 121.975C129.868 122.608 130.368 123.1 131.002 123.45C131.635 123.8 132.36 123.975 133.177 123.975ZM137.577 108.55H140.377V126H137.777C137.743 125.617 137.702 125.142 137.652 124.575C137.602 124.008 137.577 123.5 137.577 123.05V108.55ZM154.315 121.9H156.99C156.857 122.75 156.524 123.508 155.99 124.175C155.474 124.825 154.765 125.342 153.865 125.725C152.965 126.092 151.89 126.275 150.64 126.275C149.224 126.275 147.957 126.017 146.84 125.5C145.724 124.967 144.849 124.217 144.215 123.25C143.582 122.283 143.265 121.133 143.265 119.8C143.265 118.483 143.574 117.333 144.19 116.35C144.807 115.367 145.657 114.608 146.74 114.075C147.84 113.542 149.107 113.275 150.54 113.275C152.024 113.275 153.257 113.542 154.24 114.075C155.24 114.592 155.982 115.375 156.465 116.425C156.949 117.458 157.149 118.767 157.065 120.35H146.09C146.174 121.05 146.399 121.683 146.765 122.25C147.149 122.8 147.665 123.233 148.315 123.55C148.965 123.85 149.724 124 150.59 124C151.557 124 152.365 123.808 153.015 123.425C153.682 123.042 154.115 122.533 154.315 121.9ZM150.465 115.525C149.332 115.525 148.399 115.808 147.665 116.375C146.932 116.925 146.457 117.633 146.24 118.5H154.265C154.199 117.567 153.824 116.842 153.14 116.325C152.457 115.792 151.565 115.525 150.465 115.525ZM168.79 123.9C166.94 123.9 165.299 123.583 163.865 122.95C162.432 122.3 161.307 121.417 160.49 120.3C159.69 119.167 159.29 117.883 159.29 116.45C159.29 115 159.69 113.725 160.49 112.625C161.29 111.508 162.407 110.642 163.84 110.025C165.274 109.392 166.924 109.075 168.79 109.075C170.657 109.075 172.299 109.392 173.715 110.025C175.132 110.642 176.24 111.508 177.04 112.625C177.857 113.725 178.265 115 178.265 116.45C178.265 117.883 177.857 119.167 177.04 120.3C176.24 121.417 175.124 122.3 173.69 122.95C172.274 123.583 170.64 123.9 168.79 123.9ZM168.79 121.975C169.89 121.975 170.89 121.842 171.79 121.575C172.69 121.308 173.465 120.933 174.115 120.45C174.765 119.967 175.274 119.383 175.64 118.7C176.007 118.017 176.19 117.267 176.19 116.45C176.19 115.617 176.007 114.867 175.64 114.2C175.29 113.533 174.782 112.967 174.115 112.5C173.465 112.017 172.69 111.65 171.79 111.4C170.89 111.15 169.89 111.025 168.79 111.025C167.69 111.025 166.682 111.15 165.765 111.4C164.865 111.65 164.082 112.017 163.415 112.5C162.765 112.967 162.257 113.533 161.89 114.2C161.54 114.867 161.365 115.617 161.365 116.45C161.365 117.267 161.54 118.017 161.89 118.7C162.257 119.383 162.765 119.967 163.415 120.45C164.082 120.933 164.865 121.308 165.765 121.575C166.682 121.842 167.69 121.975 168.79 121.975ZM165.415 119.8V112.9H169.89C170.94 112.9 171.707 113.092 172.19 113.475C172.674 113.858 172.915 114.4 172.915 115.1C172.915 115.617 172.79 116.05 172.54 116.4C172.307 116.733 171.865 116.933 171.215 117C171.649 117.067 171.974 117.167 172.19 117.3C172.407 117.417 172.557 117.575 172.64 117.775C172.724 117.958 172.765 118.183 172.765 118.45V119.8H170.79V118.525C170.79 118.342 170.757 118.2 170.69 118.1C170.64 117.983 170.515 117.9 170.315 117.85C170.115 117.8 169.807 117.775 169.39 117.775H167.39V119.8H165.415ZM167.39 116.15H169.965C170.282 116.15 170.524 116.083 170.69 115.95C170.857 115.817 170.94 115.608 170.94 115.325C170.94 115.092 170.857 114.925 170.69 114.825C170.54 114.708 170.299 114.65 169.965 114.65H167.39V116.15Z" fill="white"/>
<path d="M20.625 70.375H41.1C41.45 71.425 42.475 72.325 44.175 73.075C45.875 73.775 48.15 74.325 51 74.725C53.9 75.075 57.25 75.25 61.05 75.25C64.8 75.25 67.75 75.15 69.9 74.95C72.1 74.7 73.65 74.3 74.55 73.75C75.45 73.15 75.9 72.35 75.9 71.35C75.9 70.4 75.175 69.675 73.725 69.175C72.275 68.625 69.7 68.25 66 68.05C62.3 67.85 57.1 67.75 50.4 67.75C45.4 67.75 41.075 67.525 37.425 67.075C33.825 66.575 30.85 65.825 28.5 64.825C26.2 63.775 24.5 62.475 23.4 60.925C22.3 59.325 21.75 57.425 21.75 55.225C21.75 51.425 23.025 48.3 25.575 45.85C28.175 43.35 32.075 41.5 37.275 40.3C42.525 39.05 49.075 38.425 56.925 38.425C68.425 38.425 77.2 40.1 83.25 43.45C89.35 46.75 92.4 51.525 92.4 57.775H72.975C72.725 56.125 71.175 54.875 68.325 54.025C65.475 53.125 61.425 52.675 56.175 52.675C50.975 52.675 47.1 52.975 44.55 53.575C42.05 54.175 40.8 55.2 40.8 56.65C40.8 57.4 41.15 58 41.85 58.45C42.55 58.9 43.75 59.275 45.45 59.575C47.2 59.825 49.65 60 52.8 60.1C55.95 60.2 59.95 60.25 64.8 60.25C70.15 60.25 74.7 60.525 78.45 61.075C82.2 61.575 85.225 62.35 87.525 63.4C89.875 64.45 91.575 65.8 92.625 67.45C93.675 69.05 94.2 70.95 94.2 73.15C94.2 76.95 93 80.05 90.6 82.45C88.2 84.85 84.4 86.625 79.2 87.775C74 88.925 67.2 89.5 58.8 89.5C54.05 89.5 49.675 89.225 45.675 88.675C41.725 88.125 38.2 87.325 35.1 86.275C32 85.175 29.375 83.85 27.225 82.3C25.075 80.7 23.425 78.925 22.275 76.975C21.175 74.975 20.625 72.775 20.625 70.375ZM169.1 72.025C169.1 75.625 167.975 78.7 165.725 81.25C163.475 83.8 159.925 85.75 155.075 87.1C150.225 88.45 143.925 89.125 136.175 89.125C128.425 89.125 121.825 88.5 116.375 87.25C110.975 86 106.85 83.95 104 81.1C101.2 78.25 99.7998 74.45 99.7998 69.7C99.7998 64.95 101.2 61.15 104 58.3C106.85 55.4 110.975 53.325 116.375 52.075C121.825 50.775 128.425 50.125 136.175 50.125C143.925 50.125 150.2 50.8 155 52.15C159.8 53.5 163.325 55.45 165.575 58C167.825 60.55 168.975 63.6 169.025 67.15H152.525C151.725 65.2 149.925 63.7 147.125 62.65C144.325 61.55 140.675 61 136.175 61C132.525 61 129.35 61.275 126.65 61.825C123.95 62.325 121.85 63.2 120.35 64.45C118.9 65.7 118.175 67.45 118.175 69.7C118.175 71.9 118.9 73.625 120.35 74.875C121.8 76.125 123.875 77 126.575 77.5C129.275 78 132.475 78.25 136.175 78.25C140.675 78.25 144.325 77.725 147.125 76.675C149.975 75.575 151.8 74.025 152.6 72.025H169.1Z" fill="white"/>
<defs>
<linearGradient id="paint0_linear_1_10" x1="188" y1="0" x2="9.99999" y2="164" gradientUnits="userSpaceOnUse">
<stop stop-color="#2F1DFF"/>
<stop offset="0.5" stop-color="#160A9D"/>
<stop offset="1" stop-color="#0E0765"/>
</linearGradient>
</defs>
</svg>
